<?xml version="1.0" encoding="UTF-8"?>
<svg width="30px" height="30px" viewBox="0 0 30 30" version="1.1" xmlns="http://www.w3.org/2000/svg" xmlns:xlink="http://www.w3.org/1999/xlink">
    <title>icons</title>
    <g id="Page-1" stroke="none" stroke-width="1" fill="none" fill-rule="evenodd">
        <g id="54-setting" transform="translate(-35.000000, -265.000000)" fill-rule="nonzero">
            <g id="setting-1" transform="translate(15.000000, 160.000000)">
                <g id="icons" transform="translate(20.000000, 105.000000)">
                    <circle id="NoPath_-_Copy_18_3" fill="#5672FF" cx="15" cy="15" r="15"></circle>
                    <g id="speech-bubbles" transform="translate(8.000000, 9.000000)" fill="#FFFFFF">
                        <path d="M6.25,0 L6.25,0 C9.702,0 12.5,2.265 12.5,5.058 C12.5,7.851 9.7,10.116 6.25,10.116 C5.92437432,10.1161461 5.59906302,10.0957724 5.276,10.055 C4.07880777,11.1790176 2.47241736,11.7618448 0.833,11.667 L0.833,11.34 C1.66976797,11.0068929 2.2517897,10.2360032 2.343,9.34 C2.34306075,9.22318062 2.33436976,9.10652083 2.317,8.991 C0.925291238,8.16011802 0.0521668419,6.67802987 0,5.058 C0,2.265 2.8,0 6.25,0 Z" id="Path_1469"></path>
                    </g>
                    <g id="speech-bubbles-2" opacity="0.5" transform="translate(14.000000, 13.000000)" fill="#FFFFFF">
                        <path d="M6.969,7.337 C7.00167097,8.09354984 7.46960276,8.7626923 8.169,9.053 L8.169,9.333 C6.7845399,9.41348467 5.42930048,8.9125644 4.43,7.951 C4.14896344,7.9849657 3.86607852,8.00133095 3.583,8 C2.42108366,8.00981226 1.27905401,7.69834962 0.283,7.1 C2.0977468,7.11774479 3.86466445,6.51831154 5.294,5.4 C5.95155372,4.876662 6.49417698,4.22340352 6.888,3.481 C7.28262189,2.73291833 7.4885881,1.899785 7.488,1.054 C7.488,0.918 7.482,0.783 7.472,0.648 C8.41176133,1.37229055 8.97345474,2.48281135 9,3.669 C8.95138514,5.06165479 8.19382336,6.33268349 6.992,7.038 C6.97678212,7.13694151 6.96909338,7.23689507 6.969,7.337 Z" id="Path_1469-2"></path>
                    </g>
                </g>
            </g>
        </g>
    </g>
</svg>