<?xml version="1.0" encoding="UTF-8"?>
<svg width="30px" height="30px" viewBox="0 0 30 30" version="1.1" xmlns="http://www.w3.org/2000/svg" xmlns:xlink="http://www.w3.org/1999/xlink">
    <title>icons</title>
    <g id="Page-1" stroke="none" stroke-width="1" fill="none" fill-rule="evenodd">
        <g id="54-setting" transform="translate(-35.000000, -175.000000)" fill-rule="nonzero">
            <g id="setting-1" transform="translate(15.000000, 160.000000)">
                <g id="1" transform="translate(20.000000, 14.000000)">
                    <g id="icons" transform="translate(0.000000, 1.000000)">
                        <circle id="NoPath_-_Copy_18_2" fill="#555D5C" cx="15" cy="15" r="15"></circle>
                        <g id="night" transform="translate(7.354000, 8.000000)" fill="#FFFFFF">
                            <g id="Group_623" transform="translate(0.646000, 0.000000)">
                                <path d="M13.896,10.108 C13.770894,9.95502269 13.5630422,9.89735282 13.377,9.964 C12.8413009,10.1528002 12.2769847,10.2475296 11.709,10.244 C9.46055567,10.2444905 7.47489883,8.77800439 6.81403442,6.62887425 C6.15317001,4.47974411 6.97176354,2.15094198 8.832,0.888 C8.99131337,0.780032822 9.06786774,0.585236784 9.02469017,0.397691164 C8.98151261,0.210145544 8.8274862,0.0684348094 8.637,0.041 C8.42060959,0.0115765854 8.20237131,-0.00212597098 7.984,-5.01822976e-16 C4.61960377,3.228026e-05 1.73340185,2.39874068 1.11792586,5.70636087 C0.502449877,9.01398106 2.33265125,12.2903093 5.47184795,13.5005183 C8.61104465,14.7107274 12.1669079,13.5108108 13.931,10.646 C14.0338745,10.4772101 14.0198764,10.2620385 13.896,10.108 Z" id="Path_1471"></path>
                            </g>
                        </g>
                    </g>
                </g>
            </g>
        </g>
    </g>
</svg>