<?xml version="1.0" encoding="UTF-8"?>
<svg width="30px" height="30px" viewBox="0 0 30 30" version="1.1" xmlns="http://www.w3.org/2000/svg" xmlns:xlink="http://www.w3.org/1999/xlink">
    <title>icons</title>
    <g id="Page-1" stroke="none" stroke-width="1" fill="none" fill-rule="evenodd">
        <g id="54-setting" transform="translate(-35.000000, -430.000000)" fill-rule="nonzero">
            <g id="setting-2" transform="translate(15.000000, 415.000000)">
                <g id="icons" transform="translate(20.000000, 15.000000)">
                    <circle id="NoPath_-_Copy_18_7" fill="#FFC041" cx="15" cy="15" r="15"></circle>
                    <g id="locked-padlock" transform="translate(8.250000, 6.000000)" fill="#FFFFFF">
                        <g id="lock" transform="translate(0.750000, 0.000000)">
                            <path d="M10.5,5.25 L9.75,5.25 L9.75,3.75 C9.75,1.67893219 8.07106781,0 6,0 C3.92893219,0 2.25,1.67893219 2.25,3.75 L2.25,5.25 L1.5,5.25 C0.671572875,5.25 0,5.92157288 0,6.75 L0,14.25 C0,15.0784271 0.671572875,15.75 1.5,15.75 L10.5,15.75 C11.3284271,15.75 12,15.0784271 12,14.25 L12,6.75 C12,5.92157288 11.3284271,5.25 10.5,5.25 Z M6,12 C5.17157288,12 4.5,11.3284271 4.5,10.5 C4.5,9.67157288 5.17157288,9 6,9 C6.82842712,9 7.5,9.67157288 7.5,10.5 C7.5,11.3284271 6.82842712,12 6,12 Z M8.325,5.25 L3.675,5.25 L3.675,3.75 C3.675,2.46593796 4.71593796,1.425 6,1.425 C7.28406204,1.425 8.325,2.46593796 8.325,3.75 L8.325,5.25 Z" id="Path_1474"></path>
                        </g>
                    </g>
                </g>
            </g>
        </g>
    </g>
</svg>