<?xml version="1.0" encoding="UTF-8"?>
<svg width="30px" height="30px" viewBox="0 0 30 30" version="1.1" xmlns="http://www.w3.org/2000/svg" xmlns:xlink="http://www.w3.org/1999/xlink">
    <title>icons</title>
    <g id="Page-1" stroke="none" stroke-width="1" fill="none" fill-rule="evenodd">
        <g id="54-setting" transform="translate(-35.000000, -310.000000)" fill-rule="nonzero">
            <g id="setting-1" transform="translate(15.000000, 160.000000)">
                <g id="icons" transform="translate(20.000000, 150.000000)">
                    <circle id="NoPath_-_Copy_18_4" fill="#FF568A" cx="15" cy="15" r="15"></circle>
                    <g id="turn-notifications-on-button" transform="translate(7.000000, 7.250000)" fill="#FFFFFF">
                        <g id="notifications-on" transform="translate(0.000000, 0.750000)">
                            <path d="M4.2,1.2 L3.15,0.15 C1.29201667,1.54292867 0.140160635,3.68208988 0,6 L1.5,6 C1.60100307,4.06614366 2.59977718,2.29054523 4.2,1.2 L4.2,1.2 Z M14.25,6 L15.75,6 C15.6380896,3.69188235 14.5127307,1.55095572 12.675,0.15 L11.625,1.2 C13.1803873,2.32112049 14.1453011,4.0855343 14.25,6 L14.25,6 Z M12.75,6.375 C12.7595799,4.11656627 11.2016085,2.15352228 9,1.65 L9,1.125 C9,0.503679656 8.49632034,-1.77635684e-15 7.875,-1.77635684e-15 C7.25367966,-1.77635684e-15 6.75,0.503679656 6.75,1.125 L6.75,1.65 C4.54839149,2.15352228 2.99042007,4.11656627 3,6.375 L3,10.5 L1.5,12 L1.5,12.75 L14.25,12.75 L14.25,12 L12.75,10.5 L12.75,6.375 Z M7.875,15 L8.175,15 C8.668773,14.9264906 9.07683724,14.5767213 9.225,14.1 C9.31869326,13.9135305 9.36992019,13.7086228 9.375,13.5 L6.375,13.5 C6.375,14.3284271 7.04657288,15 7.875,15 Z" id="Path_1470"></path>
                        </g>
                    </g>
                </g>
            </g>
        </g>
    </g>
</svg>