<?xml version="1.0" encoding="UTF-8"?>
<svg width="30px" height="30px" viewBox="0 0 30 30" version="1.1" xmlns="http://www.w3.org/2000/svg" xmlns:xlink="http://www.w3.org/1999/xlink">
    <title>icons</title>
    <g id="Page-1" stroke="none" stroke-width="1" fill="none" fill-rule="evenodd">
        <g id="54-setting" transform="translate(-35.000000, -355.000000)" fill-rule="nonzero">
            <g id="setting-1" transform="translate(15.000000, 160.000000)">
                <g id="icons" transform="translate(20.000000, 195.000000)">
                    <circle id="NoPath_-_Copy_18_5" fill="#BC56FF" cx="15" cy="15" r="15"></circle>
                    <g id="shield" transform="translate(8.000000, 6.001000)" fill="#FFFFFF">
                        <path d="M13.985,5.141 L13.985,5.129 C13.978,4.982 13.974,4.829 13.971,4.655 C13.9551745,3.80962189 13.2911067,3.11897393 12.447,3.07 C10.8450247,3.03695674 9.31631121,2.39262888 8.174,1.269 L8.164,1.259 C7.78937098,0.91190925 7.21062902,0.91190925 6.836,1.259 L6.826,1.268 C5.68347383,2.39117668 4.15481492,3.03512379 2.553,3.068 C1.70853263,3.11753899 1.04475555,3.80920952 1.03,4.655 C1.03,4.826 1.023,4.982 1.016,5.129 L1.016,5.157 C0.863472995,7.19530285 1.08996295,9.24422318 1.684,11.2 C2.07558554,12.2837607 2.70578763,13.2656319 3.528,14.073 C4.56098977,15.0378912 5.79338189,15.7640126 7.138,16.2 C7.18635995,16.2167041 7.23580951,16.2300689 7.286,16.24 C7.42791669,16.2684993 7.57408331,16.2684993 7.716,16.24 C7.76655068,16.2297771 7.81633561,16.2160779 7.865,16.199 C9.20855823,15.7595222 10.4392104,15.030348 11.47,14.063 C12.2918931,13.2553724 12.9220455,12.2735784 13.314,11.19 C13.9092203,9.2323889 14.1367238,7.18146769 13.985,5.141 Z" id="Path_1473"></path>
                    </g>
                </g>
            </g>
        </g>
    </g>
</svg>